<svg xmlns="http://www.w3.org/2000/svg" viewBox="0 0 422.59 354"><defs><style>.cls-1{fill:#cdd5e1;}.cls-2{fill:#568000;stroke:#919191;stroke-width:4px;}.cls-2,.cls-6,.cls-9{stroke-miterlimit:10;}.cls-3{fill:#3d5b6c;}.cls-4{fill:#9acf25;}.cls-5{fill:#bbe077;}.cls-6,.cls-9{fill:none;}.cls-6{stroke:#5e3702;stroke-width:7px;}.cls-7{fill:#fa1e34;}.cls-8{fill:#db6e14;}.cls-9{stroke:#9acf25;stroke-width:10px;}.cls-10{fill:#ff7373;}.cls-11{fill:#e54c4c;}.cls-12{fill:#f90;}.cls-13{fill:#fcc64c;}.cls-14{fill:#edb758;}.cls-15{fill:#f7cc81;}.cls-16{fill:#18802d;}.cls-17{fill:#578000;}.cls-18{fill:#466300;}.cls-19{fill:#567200;}.cls-20{fill:#6f9300;}</style></defs><g id="wheels"><path class="cls-1" d="M411.57,58A14.49,14.49,0,0,0,394,68.54l-30.95,125H101.5a14.1,14.1,0,0,0-1.73.11L71,13A15.09,15.09,0,0,0,57.27.29,13.28,13.28,0,0,0,54.5,0h-41a13.5,13.5,0,0,0,0,27H42.63L80.58,265a15.09,15.09,0,0,0,11.71,12.36,14.25,14.25,0,0,0,4.21.63h254a14.5,14.5,0,0,0,0-29H108.61l-4.23-26.5H374.5a14.49,14.49,0,0,0,14.37-12.64l.12-.4L422.16,75.51A14.49,14.49,0,0,0,411.57,58Z"/><line class="cls-2" x1="251.1" y1="337.22" x2="393.5" y2="337.5"/><line class="cls-2" x1="116.61" y1="337.22" x2="221.37" y2="337.22"/><path class="cls-3" d="M163.5,279A27.5,27.5,0,1,1,136,306.5,27.54,27.54,0,0,1,163.5,279m0-20A47.5,47.5,0,1,0,211,306.5,47.5,47.5,0,0,0,163.5,259Z"/><path class="cls-3" d="M285.5,279A27.5,27.5,0,1,1,258,306.5,27.54,27.54,0,0,1,285.5,279m0-20A47.5,47.5,0,1,0,333,306.5,47.5,47.5,0,0,0,285.5,259Z"/><g id="Apfel"><path id="leef" class="cls-4" d="M333.42,110.62c-.12-1.42,8.24-1.37,15.5.64,1.63.46,3.79,1.07,3.91,1.72.19,1-4.23,1.8-8.43,1.44C339.36,114,333.51,111.78,333.42,110.62Z"/><path id="leef-2" data-name="leef" class="cls-5" d="M333.25,110c-1-2.43,12.08-10.52,24.62-14,2.83-.78,6.57-1.79,7.15-.73.86,1.59-5.56,7.38-12.35,10.85C344.54,110.3,334.09,112,333.25,110Z"/><g id="stick"><path class="cls-6" d="M311.72,94.78c1-.36,10.08-3.39,16.32,4.06,5.25,6.27,4.77,15.48,4.65,17.21"/><circle class="cls-6" cx="311.93" cy="94.71" r="0.34"/></g><g id="apple"><path class="cls-7" d="M367.1,153.06a30.22,30.22,0,0,0-20.34-37.6,29.88,29.88,0,0,0-13.53-.83,30.17,30.17,0,0,0-49.33,13.82c-.16.54-.3,1.09-.43,1.63a52.54,52.54,0,0,0-1.17,23.42c3.22,19.74,15.44,34.17,27.29,32.24a12.89,12.89,0,0,0,2.61-.7,11.8,11.8,0,0,0,1.22,1.33c8.69,8.29,26.92,3.28,40.72-11.2a52.27,52.27,0,0,0,12.37-20.32C366.73,154.26,366.92,153.67,367.1,153.06Z"/></g></g><g id="Karotte"><ellipse class="cls-4" cx="97.11" cy="57.28" rx="6.3" ry="20" transform="translate(-14.92 69.98) rotate(-37)"/><ellipse class="cls-4" cx="116.61" cy="52.44" rx="19.53" ry="6.45" transform="translate(52.73 163.19) rotate(-84.24)"/><ellipse class="cls-4" cx="106.33" cy="54.16" rx="6.4" ry="19.68" transform="translate(-11.51 35.38) rotate(-17.94)"/><path class="cls-8" d="M110.58,70.31l14.2-4.38c6.28-1.94,13,1.91,14.22,8.15l15.69,80,3.9,19.89c2.33,11.87-14.74,17.14-20.44,6.31l-9.56-18.14L90.16,89.15a10.13,10.13,0,0,1,6.22-14.46Z"/><line class="cls-8" x1="99.02" y1="105.96" x2="111.14" y2="103.32"/><line class="cls-8" x1="145.55" y1="107.43" x2="132.61" y2="110.94"/><line class="cls-8" x1="112.35" y1="131.28" x2="120.35" y2="129.11"/><line class="cls-8" x1="116.57" y1="139.28" x2="127.54" y2="136.17"/><line class="cls-8" x1="153.65" y1="148.73" x2="138.72" y2="151.86"/><line class="cls-8" x1="133.97" y1="172.32" x2="142.15" y2="170.43"/></g><g id="paprika"><path class="cls-9" d="M245.6,117c4.34-10.08,11.2-15.9,16.46-14.84a7.62,7.62,0,0,1,4,2.45"/><ellipse class="cls-10" cx="207.87" cy="130.41" rx="41.61" ry="26.68" transform="translate(-28.24 197.24) rotate(-47.91)"/><ellipse class="cls-7" cx="227.15" cy="151.9" rx="41.61" ry="26.68" transform="translate(-45.99 159.91) rotate(-35.45)"/><ellipse class="cls-11" cx="216.38" cy="143.34" rx="41.61" ry="21.26" transform="translate(-40.3 181.81) rotate(-42.05)"/></g><g id="orange_geschnitten" data-name="orange geschnitten"><circle class="cls-12" cx="187.47" cy="48.86" r="44.86"/><circle class="cls-13" cx="187.47" cy="48.86" r="36.98"/><path class="cls-14" d="M187,14.5h7a6.89,6.89,0,0,1,6,10.33l-3.51,6.09L193,37a6.89,6.89,0,0,1-11.93,0l-3.51-6.08L174,24.83a6.89,6.89,0,0,1,6-10.33Z"/><path class="cls-14" d="M216.91,31.36l3.59,6a6.88,6.88,0,0,1-5.84,10.39l-7,.08-7,.09a6.89,6.89,0,0,1-6.08-10.26L198,31.59l3.44-6.13a6.89,6.89,0,0,1,11.93-.14Z"/><path class="cls-14" d="M207.31,48.9h7.1a7,7,0,0,1,6,10.43l-3.55,6.15-3.55,6.16a7,7,0,0,1-12.05,0l-3.55-6.16-3.55-6.15a7,7,0,0,1,6-10.43Z"/><path class="cls-14" d="M187,83.55l-7.11,0A7,7,0,0,1,174,73l3.59-6.13,3.59-6.13a7,7,0,0,1,12.05.07L196.7,67l3.52,6.17a7,7,0,0,1-6.09,10.4Z"/><path class="cls-14" d="M157.61,66.34l-3.55-6.06A6.89,6.89,0,0,1,160,49.91l7,0,7,0a6.89,6.89,0,0,1,6,10.29l-3.48,6.11-3.48,6.11a6.88,6.88,0,0,1-11.92.07Z"/><path class="cls-14" d="M167.17,48.68l-7,0a6.89,6.89,0,0,1-5.9-10.36l3.55-6.07,3.56-6.07a6.88,6.88,0,0,1,11.92.07l3.48,6.11,3.47,6.11a6.88,6.88,0,0,1-6,10.29Z"/><circle class="cls-15" cx="187.25" cy="48.64" r="4.38"/></g><g id="Brokolie"><rect class="cls-16" x="278.37" y="35.69" width="24.35" height="64.08" rx="8" transform="translate(78.73 -142.36) rotate(31.64)"/><path class="cls-17" d="M350.19,69.24a20.11,20.11,0,0,0-4.93-20.89,20,20,0,0,0,2.2-4.44A20.43,20.43,0,0,0,334.52,18a21,21,0,0,0-15.17.55,21,21,0,0,0-33.11-2.35c-.42-.17-.85-.34-1.28-.49C274.13,12,263,15.88,260,24.38s3.42,18.4,14.24,22.13a25.33,25.33,0,0,0,9.18,1.4,20.68,20.68,0,0,0,13.92,17.2,21,21,0,0,0,12.81.31,20.82,20.82,0,0,0,40,3.82Z"/></g><circle class="cls-18" cx="331.25" cy="62.25" r="16.75"/><circle class="cls-19" cx="331" cy="38" r="11"/><line class="cls-2" x1="21" y1="337.22" x2="99.22" y2="337.22"/><line class="cls-2" x1="411" y1="337" x2="419" y2="337"/><circle class="cls-20" cx="301.5" cy="35.5" r="2.5"/><circle class="cls-20" cx="305.5" cy="51.5" r="2.5"/><circle class="cls-20" cx="292.5" cy="46.5" r="2.5"/><circle class="cls-20" cx="280.5" cy="38.5" r="2.5"/><circle class="cls-20" cx="269.5" cy="32.5" r="2.5"/><circle class="cls-20" cx="280.5" cy="24.5" r="2.5"/><circle class="cls-20" cx="295.5" cy="17.5" r="2.5"/><circle class="cls-20" cx="311.5" cy="19.5" r="2.5"/><circle class="cls-20" cx="312.5" cy="41.5" r="2.5"/></g></svg>